<mxfile host="65bd71144e">
    <diagram id="Rp4Rxmx_MzUc687R3mNf" name="Page-1">
        <mxGraphModel dx="892" dy="898" grid="1" gridSize="10" guides="1" tooltips="1" connect="1" arrows="1" fold="1" page="1" pageScale="1" pageWidth="1654" pageHeight="2336" math="0" shadow="0">
            <root>
                <mxCell id="0"/>
                <mxCell id="1" parent="0"/>
                <mxCell id="KUqlONn5a7NhM2SFhhXj-9" style="edgeStyle=none;html=1;" edge="1" parent="1" source="KUqlONn5a7NhM2SFhhXj-3">
                    <mxGeometry relative="1" as="geometry">
                        <mxPoint x="760" y="510" as="targetPoint"/>
                    </mxGeometry>
                </mxCell>
                <mxCell id="KUqlONn5a7NhM2SFhhXj-3" value="Enter Escape Room -&lt;br&gt;notify user of the timer and time limit." style="whiteSpace=wrap;html=1;aspect=fixed;" vertex="1" parent="1">
                    <mxGeometry x="680" y="290" width="160" height="160" as="geometry"/>
                </mxCell>
                <mxCell id="vvOdUtiZGzjjeDkIPJiL-4" style="edgeStyle=none;html=1;exitX=0.5;exitY=1;exitDx=0;exitDy=0;entryX=0.5;entryY=0;entryDx=0;entryDy=0;" edge="1" parent="1" source="vvOdUtiZGzjjeDkIPJiL-2" target="KUqlONn5a7NhM2SFhhXj-4">
                    <mxGeometry relative="1" as="geometry"/>
                </mxCell>
                <mxCell id="KUqlONn5a7NhM2SFhhXj-6" style="edgeStyle=none;html=1;" edge="1" parent="1" source="vvOdUtiZGzjjeDkIPJiL-2">
                    <mxGeometry relative="1" as="geometry">
                        <mxPoint x="920" y="90" as="targetPoint"/>
                    </mxGeometry>
                </mxCell>
                <mxCell id="vvOdUtiZGzjjeDkIPJiL-2" value="Welcome Page (story)" style="rounded=1;whiteSpace=wrap;html=1;" vertex="1" parent="1">
                    <mxGeometry x="680" y="60" width="160" height="60" as="geometry"/>
                </mxCell>
                <mxCell id="vvOdUtiZGzjjeDkIPJiL-5" style="edgeStyle=none;html=1;exitX=0.5;exitY=1;exitDx=0;exitDy=0;entryX=0.5;entryY=0;entryDx=0;entryDy=0;" edge="1" parent="1" source="KUqlONn5a7NhM2SFhhXj-4" target="KUqlONn5a7NhM2SFhhXj-3">
                    <mxGeometry relative="1" as="geometry"/>
                </mxCell>
                <mxCell id="KUqlONn5a7NhM2SFhhXj-4" value="User Interaction in Code take username / team name" style="rounded=0;whiteSpace=wrap;html=1;" vertex="1" parent="1">
                    <mxGeometry x="700" y="170" width="120" height="60" as="geometry"/>
                </mxCell>
                <mxCell id="KUqlONn5a7NhM2SFhhXj-5" value="Use SoC AI to write story elements" style="rounded=0;whiteSpace=wrap;html=1;" vertex="1" parent="1">
                    <mxGeometry x="930" y="60" width="120" height="60" as="geometry"/>
                </mxCell>
                <mxCell id="vvOdUtiZGzjjeDkIPJiL-6" value="2nd challenge&lt;br&gt;laser maze" style="rounded=0;whiteSpace=wrap;html=1;" vertex="1" parent="1">
                    <mxGeometry x="700" y="660" width="120" height="60" as="geometry"/>
                </mxCell>
                <mxCell id="vvOdUtiZGzjjeDkIPJiL-13" style="edgeStyle=none;html=1;exitX=0.5;exitY=1;exitDx=0;exitDy=0;entryX=0.5;entryY=0;entryDx=0;entryDy=0;" edge="1" parent="1" source="vvOdUtiZGzjjeDkIPJiL-7" target="vvOdUtiZGzjjeDkIPJiL-6">
                    <mxGeometry relative="1" as="geometry"/>
                </mxCell>
                <mxCell id="vvOdUtiZGzjjeDkIPJiL-32" style="edgeStyle=none;html=1;exitX=1;exitY=0.5;exitDx=0;exitDy=0;entryX=0;entryY=0.5;entryDx=0;entryDy=0;" edge="1" parent="1" source="vvOdUtiZGzjjeDkIPJiL-7" target="vvOdUtiZGzjjeDkIPJiL-31">
                    <mxGeometry relative="1" as="geometry"/>
                </mxCell>
                <mxCell id="vvOdUtiZGzjjeDkIPJiL-7" value="1st challenge&lt;br&gt;crack the code" style="rounded=0;whiteSpace=wrap;html=1;" vertex="1" parent="1">
                    <mxGeometry x="700" y="520" width="120" height="60" as="geometry"/>
                </mxCell>
                <mxCell id="vvOdUtiZGzjjeDkIPJiL-34" style="edgeStyle=none;html=1;exitX=0.5;exitY=1;exitDx=0;exitDy=0;entryX=0.5;entryY=0;entryDx=0;entryDy=0;" edge="1" parent="1" source="vvOdUtiZGzjjeDkIPJiL-8" target="vvOdUtiZGzjjeDkIPJiL-21">
                    <mxGeometry relative="1" as="geometry"/>
                </mxCell>
                <mxCell id="vvOdUtiZGzjjeDkIPJiL-8" value="3rd challenge&lt;br&gt;secret doctype" style="rounded=0;whiteSpace=wrap;html=1;" vertex="1" parent="1">
                    <mxGeometry x="700" y="800" width="120" height="60" as="geometry"/>
                </mxCell>
                <mxCell id="vvOdUtiZGzjjeDkIPJiL-14" value="pass" style="text;html=1;strokeColor=none;fillColor=none;align=center;verticalAlign=middle;whiteSpace=wrap;rounded=0;" vertex="1" parent="1">
                    <mxGeometry x="770" y="610" width="60" height="30" as="geometry"/>
                </mxCell>
                <mxCell id="vvOdUtiZGzjjeDkIPJiL-15" style="edgeStyle=none;html=1;exitX=0.5;exitY=1;exitDx=0;exitDy=0;entryX=0.5;entryY=0;entryDx=0;entryDy=0;" edge="1" parent="1">
                    <mxGeometry relative="1" as="geometry">
                        <mxPoint x="760" y="720" as="sourcePoint"/>
                        <mxPoint x="760" y="800" as="targetPoint"/>
                    </mxGeometry>
                </mxCell>
                <mxCell id="vvOdUtiZGzjjeDkIPJiL-16" value="pass" style="text;html=1;strokeColor=none;fillColor=none;align=center;verticalAlign=middle;whiteSpace=wrap;rounded=0;" vertex="1" parent="1">
                    <mxGeometry x="770" y="750" width="60" height="30" as="geometry"/>
                </mxCell>
                <mxCell id="vvOdUtiZGzjjeDkIPJiL-27" value="" style="curved=1;endArrow=classic;html=1;exitX=0.008;exitY=0.883;exitDx=0;exitDy=0;exitPerimeter=0;" edge="1" parent="1">
                    <mxGeometry width="50" height="50" relative="1" as="geometry">
                        <mxPoint x="700.96" y="706.98" as="sourcePoint"/>
                        <mxPoint x="760" y="634" as="targetPoint"/>
                        <Array as="points">
                            <mxPoint x="700" y="714"/>
                            <mxPoint x="610" y="707"/>
                            <mxPoint x="560" y="684"/>
                            <mxPoint x="640" y="634"/>
                        </Array>
                    </mxGeometry>
                </mxCell>
                <mxCell id="vvOdUtiZGzjjeDkIPJiL-28" value="fail" style="text;html=1;strokeColor=none;fillColor=none;align=center;verticalAlign=middle;whiteSpace=wrap;rounded=0;" vertex="1" parent="1">
                    <mxGeometry x="580" y="670" width="60" height="30" as="geometry"/>
                </mxCell>
                <mxCell id="vvOdUtiZGzjjeDkIPJiL-30" value="fail" style="text;html=1;strokeColor=none;fillColor=none;align=center;verticalAlign=middle;whiteSpace=wrap;rounded=0;" vertex="1" parent="1">
                    <mxGeometry x="579" y="804" width="60" height="30" as="geometry"/>
                </mxCell>
                <mxCell id="vvOdUtiZGzjjeDkIPJiL-29" value="" style="curved=1;endArrow=classic;html=1;exitX=0.008;exitY=0.883;exitDx=0;exitDy=0;exitPerimeter=0;" edge="1" parent="1">
                    <mxGeometry width="50" height="50" relative="1" as="geometry">
                        <mxPoint x="699.96" y="840.98" as="sourcePoint"/>
                        <mxPoint x="759" y="768" as="targetPoint"/>
                        <Array as="points">
                            <mxPoint x="699" y="848"/>
                            <mxPoint x="609" y="841"/>
                            <mxPoint x="559" y="818"/>
                            <mxPoint x="639" y="768"/>
                        </Array>
                    </mxGeometry>
                </mxCell>
                <mxCell id="vvOdUtiZGzjjeDkIPJiL-21" value="Ending Page&lt;br&gt;Time use&lt;br&gt;Top score&lt;br&gt;Lucky escape board" style="rounded=0;whiteSpace=wrap;html=1;" vertex="1" parent="1">
                    <mxGeometry x="700" y="920" width="120" height="100" as="geometry"/>
                </mxCell>
                <mxCell id="vvOdUtiZGzjjeDkIPJiL-31" value="timer start" style="rounded=0;whiteSpace=wrap;html=1;" vertex="1" parent="1">
                    <mxGeometry x="900" y="520" width="120" height="60" as="geometry"/>
                </mxCell>
                <mxCell id="vvOdUtiZGzjjeDkIPJiL-33" value="timer end" style="rounded=0;whiteSpace=wrap;html=1;" vertex="1" parent="1">
                    <mxGeometry x="900" y="840" width="120" height="60" as="geometry"/>
                </mxCell>
                <mxCell id="vvOdUtiZGzjjeDkIPJiL-35" value="" style="endArrow=classic;html=1;entryX=0;entryY=0.5;entryDx=0;entryDy=0;" edge="1" parent="1" target="vvOdUtiZGzjjeDkIPJiL-33">
                    <mxGeometry width="50" height="50" relative="1" as="geometry">
                        <mxPoint x="760" y="870" as="sourcePoint"/>
                        <mxPoint x="810" y="740" as="targetPoint"/>
                    </mxGeometry>
                </mxCell>
                <mxCell id="KUqlONn5a7NhM2SFhhXj-16" value="Scratch Background Room 1" style="ellipse;whiteSpace=wrap;html=1;" vertex="1" parent="1">
                    <mxGeometry x="420" y="510" width="120" height="80" as="geometry"/>
                </mxCell>
                <mxCell id="YLwepoLtWd2NDPpLxQiu-5" value="Scratch Background&lt;br&gt;Neon Tunnel&lt;br&gt;Use &quot;Line&quot; for lasers" style="ellipse;whiteSpace=wrap;html=1;" vertex="1" parent="1">
                    <mxGeometry x="400" y="640" width="140" height="85" as="geometry"/>
                </mxCell>
                <mxCell id="YLwepoLtWd2NDPpLxQiu-6" value="Scratch Background&amp;nbsp;&lt;br&gt;XY Grid 30px" style="ellipse;whiteSpace=wrap;html=1;" vertex="1" parent="1">
                    <mxGeometry x="420" y="780" width="120" height="80" as="geometry"/>
                </mxCell>
            </root>
        </mxGraphModel>
    </diagram>
</mxfile>